#!OML:ASF F:\VICON\USERDATA\INSTALL\rory3\rory3.ASF
:FULLY-SPECIFIED
:DEGREES
2821
root -7.87212 17.7057 -4.01468 899.352 37.1827 -1259.87
lowerback 10.8525 2.05367 1.86915
upperback 0.695962 3.02039 0.0214906
thorax -5.26019 1.47027 -1.4881
lowerneck -20.5682 -6.73872 -11.7404
upperneck 31.8923 -7.39315 8.52769
head 15.5046 -2.94992 4.31151
rclavicle -8.09426e-014 1.13307e-014
rhumerus -31.5431 -7.07209 -82.4358
rradius 37.4459
rwrist 2.18179
rhand -17.9764 9.73063
rfingers 7.12502
rthumb 8.29311 -20.0866
lclavicle -8.09426e-014 1.13307e-014
lhumerus -33.5813 13.2217 79.4782
lradius 26.1583
lwrist -9.06729
lhand -21.2262 21.6356
lfingers 7.12502
lthumb 5.15598 51.5529
rfemur 9.36529 3.68021 27.0833
rtibia 20.0795
rfoot -16.0327 -0.223276
rtoes 4.4404
lfemur -19.7345 -6.85755 -15.4601
ltibia 13.1392
lfoot -4.15978 -11.5883
ltoes -6.53069
2822
root -7.81284 17.6948 -4.1396 899.289 37.5506 -1259.69
lowerback 10.9046 2.03494 2.00372
upperback 0.755164 3.01983 0.102633
thorax -5.2248 1.47001 -1.4796
lowerneck -20.5006 -6.72398 -11.7542
upperneck 31.973 -7.33713 8.43737
head 15.5158 -2.94035 4.29053
rclavicle 2.55687e-014 -1.39149e-015
rhumerus -31.5464 -7.04438 -82.3824
rradius 37.4247
rwrist 2.29513
rhand -17.908 9.92109
rfingers 7.12502
rthumb 8.35915 -19.8935
lclavicle 2.55687e-014 -1.39149e-015
lhumerus -33.5717 13.497 79.4082
lradius 25.8232
lwrist -9.40734
lhand -22.0274 21.1326
lfingers 7.12502
lthumb 4.38232 51.0672
rfemur 9.5731 3.935 27.1987
rtibia 20.8355
rfoot -15.8257 -0.226889
rtoes 2.87094
lfemur -19.3882 -7.18279 -15.3564
ltibia 13.6893
lfoot -4.63261 -12.3939
ltoes -11.8294
2823
root -7.75098 17.6713 -4.26608 899.252 37.9523 -1259.43
lowerback 10.9336 1.98805 2.17385
upperback 0.839713 2.98655 0.187135
thorax -5.14952 1.45429 -1.48101
lowerneck -20.4901 -6.70601 -11.8131
upperneck 32.0904 -7.30064 8.47969
head 15.57 -2.92435 4.33354
rclavicle 2.88238e-014 -5.76476e-015
rhumerus -31.4152 -7.00965 -82.3915
rradius 37.2011
rwrist 2.35584
rhand -17.9482 10.2791
rfingers 7.12502
rthumb 8.32036 -19.5371
lclavicle 2.88238e-014 -5.76476e-015
lhumerus -33.5762 13.6557 79.3411
lradius 25.5792
lwrist -9.55778
lhand -21.0027 22.6422
lfingers 7.12502
lthumb 5.37175 52.5541
rfemur 9.73322 4.07272 27.4189
rtibia 21.7592
rfoot -15.5852 -0.562754
rtoes -1.42696
lfemur -19.0348 -7.43247 -15.2143
ltibia 14.375
lfoot -4.48721 -12.9438
ltoes -13.402
2824
root -7.68702 17.6585 -4.39224 899.106 38.3367 -1259.45
lowerback 10.9164 1.9804 2.07641
upperback 0.86057 2.96535 0.209093
thorax -5.1249 1.44699 -1.39908
lowerneck -20.4085 -6.68514 -11.6907
upperneck 32.2089 -7.27669 8.36445
head 15.5916 -2.9126 4.274
rclavicle -2.53326e-014 7.15625e-015
rhumerus -31.503 -6.90012 -82.4541
rradius 37.2189
rwrist 2.19047
rhand -17.9497 10.1439
rfingers 7.12502
rthumb 8.31887 -19.6723
lclavicle -2.53326e-014 7.15625e-015
lhumerus -33.6313 13.5363 79.3861
lradius 25.571
lwrist -9.31339
lhand -19.6062 24.6426
lfingers 7.12502
lthumb 6.71996 54.516
rfemur 9.80092 4.28687 27.3406
rtibia 22.8327
rfoot -15.3461 -0.546661
rtoes -2.82151
lfemur -18.7591 -7.56716 -15.3297
ltibia 15.1282
lfoot -3.42472 -13.5906
ltoes -11.6291
2825
root -7.62383 17.6583 -4.51981 899.007 38.7535 -1259.36
lowerback 11.029 1.98661 2.01785
upperback 0.80047 2.97467 0.312066
thorax -5.25908 1.45087 -1.2668
lowerneck -20.2685 -6.67656 -11.7268
upperneck 32.4112 -7.22376 8.29378
head 15.6479 -2.89966 4.27326
rclavicle 6.93758e-014 2.38542e-015
rhumerus -31.7435 -6.82404 -82.3754
rradius 37.215
rwrist 2.24297
rhand -18.0231 10.0038
rfingers 7.12502
rthumb 8.24805 -19.8152
lclavicle 6.93758e-014 2.38542e-015
lhumerus -33.9517 13.8039 79.3404
lradius 25.72
lwrist -9.31447
lhand -19.3924 25.3104
lfingers 7.12502
lthumb 6.92634 55.1771
rfemur 9.71816 4.5039 27.3123
rtibia 24.123
rfoot -15.0083 -0.224693
rtoes -1.83704
lfemur -18.454 -7.6522 -15.346
ltibia 15.7839
lfoot -1.87572 -14.0016
ltoes -9.33643
2826
root -7.56 17.6629 -4.64935 898.925 39.3164 -1259.18
lowerback 11.2478 2.01414 2.05345
upperback 0.72098 3.02784 0.419029
thorax -5.46731 1.47309 -1.19488
lowerneck -20.1172 -6.6481 -11.7507
upperneck 32.6414 -7.14728 8.23254
head 15.712 -2.8729 4.28129
rclavicle -1.34055e-014 7.7526e-015
rhumerus -32.0797 -6.8778 -82.2697
rradius 37.2665
rwrist 2.58748
rhand -17.9657 9.93054
rfingers 7.12502
rthumb 8.30339 -19.8863
lclavicle -1.34055e-014 7.7526e-015
lhumerus -34.3325 14.2198 79.1839
lradius 25.8335
lwrist -9.09797
lhand -19.4738 25.1848
lfingers 7.12502
lthumb 6.84783 55.0541
rfemur 9.50267 4.62259 27.3441
rtibia 25.7049
rfoot -14.5575 0.0591782
rtoes -2.30376
lfemur -18.0039 -7.67257 -15.2596
ltibia 16.2136
lfoot -0.766928 -14.0323
ltoes -7.71178
2827
root -7.49585 17.6723 -4.77334 898.679 39.8721 -1259.24
lowerback 11.4671 2.0324 1.89932
upperback 0.699282 3.03949 0.43555
thorax -5.62124 1.48027 -1.10332
lowerneck -20.0271 -6.62772 -11.7943
upperneck 32.835 -7.11358 8.27959
head 15.7855 -2.85263 4.32934
rclavicle -2.00524e-014 -2.5842e-015
rhumerus -32.2793 -6.8287 -82.3101
rradius 37.3093
rwrist 2.64913
rhand -17.8657 9.95331
rfingers 7.12502
rthumb 8.39996 -19.8597
lclavicle -2.00524e-014 -2.5842e-015
lhumerus -34.4958 14.4327 79.0448
lradius 25.8022
lwrist -8.72829
lhand -19.9108 24.3291
lfingers 7.12502
lthumb 6.42589 54.2116
rfemur 9.1745 4.82863 27.1802
rtibia 27.5774
rfoot -13.9922 0.289935
rtoes -3.33521
lfemur -17.4705 -7.42851 -15.4219
ltibia 16.4681
lfoot -0.707384 -14.0423
ltoes -8.92734
2828
root -7.42856 17.6817 -4.88995 898.267 40.3446 -1259.77
lowerback 11.4958 2.08549 1.30449
upperback 0.715903 3.02811 0.365472
thorax -5.64664 1.48803 -0.842189
lowerneck -20.0083 -6.67511 -11.9305
upperneck 32.9886 -7.18691 8.43957
head 15.8835 -2.87482 4.41902
rclavicle 1.36664e-015 -1.27222e-014
rhumerus -32.3347 -6.83438 -82.3704
rradius 37.2259
rwrist 2.59788
rhand -17.9717 10.0298
rfingers 7.12502
rthumb 8.29766 -19.7873
lclavicle 1.36664e-015 -1.27222e-014
lhumerus -34.4732 14.5371 79.0136
lradius 25.64
lwrist -8.76244
lhand -20.589 23.8212
lfingers 7.12502
lthumb 5.7712 53.7226
rfemur 8.51224 4.91864 26.6052
rtibia 29.7466
rfoot -13.1807 0.660357
rtoes -4.4815
lfemur -16.9871 -7.0163 -15.9778
ltibia 16.6226
lfoot -1.07462 -13.7715
ltoes -11.9043
2829
root -7.35656 17.6917 -5.00987 897.714 40.7984 -1260.52
lowerback 11.386 2.18819 0.588568
upperback 0.794412 3.06134 0.206969
thorax -5.53017 1.52188 -0.604849
lowerneck -20.1489 -6.75961 -11.8396
upperneck 33.1492 -7.31437 8.37899
head 16.0058 -2.92143 4.35751
rclavicle 6.27041e-014 8.34896e-015
rhumerus -32.338 -7.10908 -82.4072
rradius 37.1628
rwrist 2.61623
rhand -18.0977 9.98367
rfingers 7.12502
rthumb 8.176 -19.8381
lclavicle 6.27041e-014 8.34896e-015
lhumerus -34.2296 14.2132 79.132
lradius 25.3055
lwrist -8.51808
lhand -21.2812 23.8359
lfingers 7.12502
lthumb 5.10286 53.7545
rfemur 7.62047 4.56149 25.7195
rtibia 32.2213
rfoot -12.1193 1.25689
rtoes -5.87109
lfemur -16.3682 -6.54938 -16.719
ltibia 16.6255
lfoot -1.1147 -13.2138
ltoes -12.5836
2830
root -7.28565 17.6999 -5.13279 897.117 41.2519 -1261.06
lowerback 11.41 2.23361 0.0887839
upperback 0.92697 3.0558 0.0948619
thorax -5.42389 1.53284 -0.438516
lowerneck -20.2907 -6.76328 -11.562
upperneck 33.2388 -7.346 8.17734
head 16.0601 -2.92617 4.21504
rclavicle 9.16894e-014 3.97569e-016
rhumerus -32.2763 -7.472 -82.4422
rradius 36.9529
rwrist 2.84054
rhand -18.0859 10.1075
rfingers 7.12502
rthumb 8.18744 -19.7138
lclavicle 9.16894e-014 3.97569e-016
lhumerus -34.055 14.3523 79.0006
lradius 25.028
lwrist -8.89687
lhand -21.2774 23.9602
lfingers 7.12502
lthumb 5.10649 53.8787
rfemur 6.78204 4.26391 25.0506
rtibia 34.9116
rfoot -10.7897 1.81461
rtoes -5.13973
lfemur -15.4819 -6.04421 -17.2672
ltibia 16.5149
lfoot -0.857244 -12.9605
ltoes -10.1065
2831
root -7.21967 17.7066 -5.24771 896.564 41.7114 -1261.59
lowerback 11.5613 2.2106 -0.376706
upperback 0.946 2.95841 -0.0610895
thorax -5.50372 1.49439 -0.331096
lowerneck -20.3111 -6.67664 -11.2045
upperneck 33.3597 -7.27564 7.97171
head 16.0817 -2.8771 4.08175
rclavicle 1.00001e-013 -6.75868e-015
rhumerus -32.3192 -7.69601 -82.6258
rradius 36.606
rwrist 3.05043
rhand -18.2382 10.4911
rfingers 7.12502
rthumb 8.04042 -19.3359
lclavicle 1.00001e-013 -6.75868e-015
lhumerus -34.1439 14.9737 78.4306
lradius 24.8898
lwrist -10.1205
lhand -19.8859 24.3847
lfingers 7.12502
lthumb 6.44997 54.2665
rfemur 5.76252 4.01473 24.3981
rtibia 37.6946
rfoot -9.10793 2.25528
rtoes -2.95868
lfemur -14.6591 -5.56346 -17.7873
ltibia 16.3971
lfoot -0.723745 -13.4349
ltoes -7.05033
2832
root -7.15606 17.7171 -5.35781 896.22 42.2261 -1261.96
lowerback 11.6737 2.18658 -0.648236
upperback 0.925227 2.88164 -0.224876
thorax -5.59299 1.46108 -0.342991
lowerneck -20.2431 -6.57739 -11.0227
upperneck 33.4292 -7.20021 7.97095
head 16.0783 -2.82096 4.0703
rclavicle -2.33696e-014 1.98785e-016
rhumerus -32.4563 -7.96544 -82.8236
rradius 36.4306
rwrist 3.19631
rhand -18.2713 10.5398
rfingers 7.12502
rthumb 8.00846 -19.2885
lclavicle -2.33696e-014 1.98785e-016
lhumerus -34.3073 15.2299 78.0254
lradius 24.9546
lwrist -10.3321
lhand -19.6095 24.307
lfingers 7.12502
lthumb 6.71682 54.1805
rfemur 4.50396 3.55802 23.7932
rtibia 40.4836
rfoot -7.08751 2.78064
rtoes -1.7948
lfemur -13.9501 -4.86109 -18.2077
ltibia 16.2751
lfoot -0.970228 -14.3053
ltoes -6.04789
2833
root -7.09471 17.732 -5.46515 895.934 42.7038 -1262.11
lowerback 11.8596 2.18612 -0.777611
upperback 0.970727 2.86296 -0.275728
thorax -5.65231 1.45555 -0.327383
lowerneck -20.1546 -6.55828 -11.13
upperneck 33.3984 -7.22727 8.20486
head 16.0647 -2.81527 4.18757
rclavicle -9.37891e-014 -5.96354e-016
rhumerus -32.5461 -8.40349 -82.8031
rradius 36.2527
rwrist 3.40037
rhand -18.1208 10.7133
rfingers 7.12502
rthumb 8.15379 -19.1094
lclavicle -9.37891e-014 -5.96354e-016
lhumerus -34.3791 15.0104 78.0744
lradius 25.0957
lwrist -9.9127
lhand -19.9985 24.2406
lfingers 7.12502
lthumb 6.34126 54.1257
rfemur 3.25776 2.97412 23.3582
rtibia 43.216
rfoot -4.62781 3.25163
rtoes -0.674583
lfemur -13.1144 -4.2261 -18.4494
ltibia 16.0279
lfoot -1.31135 -14.6619
ltoes -6.63294
2834
root -7.03259 17.7465 -5.57851 895.498 43.1784 -1262.45
lowerback 12.0154 2.24345 -1.07288
upperback 1.0173 2.89988 -0.304686
thorax -5.70328 1.48165 -0.203813
lowerneck -20.0496 -6.62517 -11.3255
upperneck 33.3808 -7.33571 8.39588
head 16.0688 -2.86133 4.28504
rclavicle 8.68068e-014 5.36719e-015
rhumerus -32.7001 -8.94222 -82.6354
rradius 36.048
rwrist 3.71668
rhand -18.13 10.5368
rfingers 7.12502
rthumb 8.14485 -19.2862
lclavicle 8.68068e-014 5.36719e-015
lhumerus -34.3574 15.3133 77.8795
lradius 24.8739
lwrist -11.6155
lhand -18.0594 25.1722
lfingers 7.12502
lthumb 8.21302 54.9925
rfemur 2.05564 2.36481 22.7438
rtibia 45.8381
rfoot -1.93966 3.61742
rtoes 0.38088
lfemur -12.1457 -3.77177 -18.8398
ltibia 15.6139
lfoot -1.6862 -14.3735
ltoes -7.67787
2835
root -6.96697 17.7665 -5.70041 894.979 43.732 -1262.96
lowerback 12.0701 2.28385 -1.51961
upperback 1.0197 2.8927 -0.318246
thorax -5.75256 1.48909 0.0313808
lowerneck -19.983 -6.61403 -11.3243
upperneck 33.4784 -7.26049 8.21937
head 16.0812 -2.8553 4.22673
rclavicle -4.83295e-015 -6.95746e-015
rhumerus -32.9092 -9.18906 -82.521
rradius 35.8539
rwrist 3.80568
rhand -18.3275 9.77056
rfingers 7.12502
rthumb 7.95421 -20.0598
lclavicle -4.83295e-015 -6.95746e-015
lhumerus -34.4307 15.2653 77.8895
lradius 24.5719
lwrist -11.9207
lhand -17.9019 25.1308
lfingers 7.12502
lthumb 8.36502 54.9452
rfemur 0.852758 1.73259 21.9442
rtibia 48.3035
rfoot 0.555939 4.04733
rtoes 0.834029
lfemur -11.0797 -3.29778 -19.3745
ltibia 15.0146
lfoot -1.84104 -14.1011
ltoes -7.76604
